<svg width="32" height="32" viewBox="0 0 32 32" fill="none" xmlns="http://www.w3.org/2000/svg">
<mask id="mask0_67_927" style="mask-type:alpha" maskUnits="userSpaceOnUse" x="0" y="0" width="32" height="32">
<rect width="32" height="32" fill="#D9D9D9"/>
</mask>
<g mask="url(#mask0_67_927)">
<path d="M19.8774 26C17.0843 26 14.7184 25.0307 12.7798 23.092C10.8413 21.1536 9.87208 18.7877 9.87208 15.9943C9.87208 13.2221 10.8413 10.8633 12.7798 8.918C14.7184 6.97267 17.0843 6 19.8774 6C22.6499 6 25.0086 6.97267 26.9538 8.918C28.8991 10.8633 29.8717 13.2221 29.8717 15.9943C29.8717 18.7877 28.8991 21.1536 26.9538 23.092C25.0086 25.0307 22.6499 26 19.8774 26ZM19.8718 24C22.094 24 23.9829 23.2222 25.5384 21.6667C27.094 20.1111 27.8718 18.2222 27.8718 16C27.8718 13.7778 27.094 11.8889 25.5384 10.3333C23.9829 8.77778 22.094 8 19.8718 8C17.6495 8 15.7606 8.77778 14.2051 10.3333C12.6495 11.8889 11.8718 13.7778 11.8718 16C11.8718 18.2222 12.6495 20.1111 14.2051 21.6667C15.7606 23.2222 17.6495 24 19.8718 24ZM23.0334 20.6203L24.4591 19.195L20.8718 15.6077V10.8717H18.8718V16.4257L23.0334 20.6203ZM3.46175 11.6667V9.66667H8.53875V11.6667H3.46175ZM2.12842 17V15H8.53875V17H2.12842ZM3.46175 22.3333V20.3333H8.53875V22.3333H3.46175Z" fill="black"/>
</g>
</svg>
