<svg width="20" height="20" viewBox="0 0 20 20" fill="none" xmlns="http://www.w3.org/2000/svg">
<path d="M8.02861 18.1574C7.57021 18.3538 7.03714 18.1825 6.77903 17.7558L5.88659 16.2803C5.74606 16.0479 5.51707 15.8827 5.25226 15.8226L3.58247 15.4437C3.09391 15.3328 2.7628 14.8775 2.80784 14.3785L2.9611 12.6809C2.98592 12.406 2.89597 12.133 2.71256 11.9266L1.59055 10.6644C1.25376 10.2855 1.25376 9.71452 1.59055 9.33564L2.71256 8.07337C2.89597 7.86703 2.98592 7.59405 2.9611 7.3191L2.80784 5.62146C2.7628 5.12251 3.09391 4.66722 3.58247 4.55634L5.25226 4.17738C5.51707 4.11728 5.74606 3.95207 5.88659 3.71972L6.77903 2.24423C7.03714 1.81749 7.57021 1.64616 8.02861 1.84262L9.60608 2.51868C9.85763 2.62648 10.1424 2.62648 10.3939 2.51868L11.9714 1.84262C12.4298 1.64616 12.9629 1.81749 13.221 2.24423L14.1134 3.71972C14.2539 3.95207 14.4829 4.11728 14.7477 4.17738L16.4175 4.55634C16.9061 4.66722 17.2372 5.1225 17.1922 5.62146L17.0389 7.3191C17.0141 7.59405 17.104 7.86703 17.2874 8.07337L18.4095 9.33564C18.7462 9.71452 18.7462 10.2855 18.4095 10.6644L17.2874 11.9266C17.104 12.133 17.0141 12.406 17.0389 12.6809L17.1922 14.3785C17.2372 14.8775 16.9061 15.3328 16.4175 15.4437L14.7477 15.8226C14.4829 15.8827 14.2539 16.0479 14.1134 16.2803L13.221 17.7558C12.9629 18.1825 12.4298 18.3538 11.9714 18.1574L10.3939 17.4813C10.1424 17.3735 9.85763 17.3735 9.60608 17.4813L8.02861 18.1574ZM7.38545 15.8628C7.64253 16.2884 8.17315 16.4604 8.631 16.2667L9.61036 15.8523C9.85943 15.747 10.1406 15.747 10.3896 15.8523L11.3653 16.2651C11.8248 16.4595 12.3572 16.2855 12.6132 15.8574L13.1555 14.9505C13.2957 14.716 13.5257 14.5491 13.7921 14.4885L14.8138 14.2563C15.3022 14.1453 15.6331 13.6902 15.5882 13.1915L15.4969 12.1782C15.4723 11.9048 15.5611 11.6334 15.7425 11.4274L16.4177 10.661C16.7505 10.2832 16.7505 9.7168 16.4177 9.33897L15.7425 8.57259C15.5611 8.36664 15.4723 8.09518 15.4969 7.82183L15.5882 6.80854C15.6331 6.30976 15.3022 5.85466 14.8138 5.74368L13.7921 5.51147C13.5257 5.45092 13.2957 5.28401 13.1555 5.04953L12.6132 4.14265C12.3572 3.71447 11.8248 3.54049 11.3653 3.73487L10.3896 4.14765C10.1406 4.25303 9.85943 4.25303 9.61036 4.14765L8.6347 3.73487C8.17525 3.54049 7.64281 3.71447 7.38679 4.14265L6.84716 5.04512C6.70541 5.28219 6.47192 5.45007 6.20205 5.50895L5.1946 5.72875C4.70239 5.83614 4.36693 6.29291 4.41173 6.7947L4.50348 7.82227C4.52786 8.09536 4.43904 8.36649 4.2578 8.57223L3.58626 9.33452C3.25173 9.71426 3.25362 10.2841 3.59068 10.6616L4.27035 11.4228C4.45655 11.6313 4.54695 11.9083 4.51962 12.1866L4.41951 13.2059C4.37027 13.7073 4.70178 14.1671 5.1931 14.2787L6.21051 14.51C6.47537 14.5702 6.70435 14.7355 6.84481 14.968L7.38545 15.8628ZM8.23189 12.2996C8.62225 12.6871 9.25226 12.6866 9.642 12.2985L13.3622 8.5939C13.6567 8.3006 13.6572 7.8239 13.3633 7.52998C13.0704 7.23705 12.5956 7.23641 12.3019 7.52856L9.64043 10.1758C9.25124 10.5629 8.62275 10.564 8.23231 10.1781L7.69848 9.65056C7.40426 9.3598 6.93047 9.3612 6.63797 9.6537C6.34348 9.94819 6.34436 10.4259 6.63993 10.7193L8.23189 12.2996Z" fill="#318FFF"/>
</svg>
