<svg width="27" height="27" viewBox="0 0 27 27" fill="none" xmlns="http://www.w3.org/2000/svg">
<circle cx="13.3333" cy="13.6668" r="13.3333" fill="white"/>
<g clip-path="url(#clip0_1211_1749)">
<path d="M15.7902 7.09521H10.2092C9.11831 7.09605 8.07236 7.52976 7.30101 8.30111C6.52965 9.07247 6.09594 10.1184 6.09511 11.2093V16.7903C6.09577 17.8813 6.52941 18.9274 7.30078 19.6989C8.07216 20.4704 9.1182 20.9042 10.2092 20.905H15.7902C16.8811 20.904 17.9271 20.4702 18.6984 19.6987C19.4697 18.9272 19.9034 17.8812 19.9043 16.7903V11.2093C19.9038 10.1183 19.4702 9.07217 18.6987 8.30075C17.9273 7.52932 16.8812 7.09571 15.7902 7.09521ZM18.5158 16.7903C18.5156 17.5131 18.2284 18.2063 17.7173 18.7174C17.2062 19.2285 16.513 19.5157 15.7902 19.5159H10.2092C9.85127 19.5159 9.49688 19.4454 9.16624 19.3084C8.8356 19.1714 8.53518 18.9706 8.28214 18.7175C8.02909 18.4644 7.82839 18.164 7.69149 17.8333C7.55459 17.5026 7.48416 17.1482 7.48425 16.7903V11.2093C7.48416 10.8514 7.55459 10.497 7.6915 10.1664C7.82841 9.83575 8.02912 9.53533 8.28217 9.28228C8.53522 9.02923 8.83565 8.82852 9.16629 8.69161C9.49693 8.5547 9.8513 8.48427 10.2092 8.48435H15.7902C16.5128 8.48452 17.2058 8.77166 17.7168 9.28265C18.2278 9.79363 18.515 10.4866 18.5151 11.2093L18.5158 16.7903Z" fill="black"/>
<path d="M13 10.4293C11.0302 10.4293 9.42953 12.0306 9.42953 13.9998C9.42953 15.9689 11.0308 17.5702 13 17.5702C14.9691 17.5702 16.5704 15.9689 16.5704 13.9998C16.5704 12.0306 14.9698 10.4293 13 10.4293ZM13 16.1811C12.4215 16.1812 11.8666 15.9514 11.4575 15.5424C11.0483 15.1334 10.8184 14.5786 10.8184 14.0001C10.8183 13.4216 11.048 12.8667 11.457 12.4576C11.866 12.0484 12.4208 11.8185 12.9994 11.8185C13.5779 11.8184 14.1327 12.0481 14.5419 12.4571C14.951 12.8661 15.1809 13.4209 15.181 13.9995C15.1811 14.578 14.9513 15.1328 14.5423 15.542C14.1333 15.9511 13.5785 16.181 13 16.1811ZM16.578 9.6001C16.7471 9.60022 16.9125 9.65049 17.0531 9.74455C17.1937 9.83861 17.3032 9.97224 17.3679 10.1286C17.4326 10.2849 17.4495 10.4568 17.4165 10.6227C17.3834 10.7887 17.302 10.941 17.1823 11.0607C17.0627 11.1803 16.9103 11.2618 16.7444 11.2948C16.5785 11.3278 16.4065 11.3109 16.2502 11.2462C16.0939 11.1816 15.9603 11.072 15.8662 10.9314C15.7722 10.7908 15.7219 10.6255 15.7218 10.4563C15.7218 9.98426 16.0419 9.6001 16.578 9.6001Z" fill="black"/>
</g>
<defs>
<clipPath id="clip0_1211_1749">
<rect width="14" height="14" fill="white" transform="translate(6 7)"/>
</clipPath>
</defs>
</svg>
