<svg width="27" height="28" viewBox="0 0 27 28" fill="none" xmlns="http://www.w3.org/2000/svg">
<rect y="0.666504" width="26.6667" height="26.6667" rx="13.3333" fill="white"/>
<path fill-rule="evenodd" clip-rule="evenodd" d="M9.18321 8.58216C9.18321 9.41222 8.55119 10.084 7.56282 10.084C6.61295 10.084 5.98093 9.41222 6.00049 8.58216C5.98093 7.71176 6.61293 7.05957 7.58175 7.05957C8.55117 7.05957 9.16426 7.71176 9.18321 8.58216ZM6.07995 20.9389V11.2704H9.0848V20.9383H6.07995V20.9389Z" fill="black" fill-opacity="0.9"/>
<path fill-rule="evenodd" clip-rule="evenodd" d="M11.4931 14.356C11.4931 13.15 11.4534 12.1219 11.4137 11.2717H14.0237L14.1624 12.5962H14.2217C14.6172 11.9832 15.6055 11.0547 17.207 11.0547C19.1837 11.0547 20.6666 12.3597 20.6666 15.2056V20.9402H17.6617V15.5821C17.6617 14.3358 17.2272 13.4862 16.1398 13.4862C15.3091 13.4862 14.8152 14.0595 14.6178 14.6127C14.5383 14.8107 14.4992 15.087 14.4992 15.3645V20.9402H11.4943V14.356H11.4931Z" fill="black" fill-opacity="0.9"/>
</svg>
