<svg width="14" height="14" viewBox="0 0 14 14" fill="none" xmlns="http://www.w3.org/2000/svg">
<path d="M6.99996 12.8333C6.86385 12.8333 6.74718 12.7944 6.64996 12.7166C6.55274 12.6388 6.47982 12.5368 6.43121 12.4104C6.24649 11.8659 6.01315 11.3555 5.73121 10.8791C5.45899 10.4027 5.07496 9.84371 4.57913 9.20204C4.08329 8.56038 3.67982 7.94788 3.36871 7.36454C3.06732 6.78121 2.91663 6.07635 2.91663 5.24996C2.91663 4.11246 3.31038 3.14996 4.09788 2.36246C4.8951 1.56524 5.86246 1.16663 6.99996 1.16663C8.13746 1.16663 9.09996 1.56524 9.88746 2.36246C10.6847 3.14996 11.0833 4.11246 11.0833 5.24996C11.0833 6.13468 10.9132 6.87357 10.5729 7.46663C10.2423 8.04996 9.85829 8.62843 9.42079 9.20204C8.89579 9.90204 8.49718 10.4854 8.22496 10.952C7.96246 11.409 7.74371 11.8951 7.56871 12.4104C7.5201 12.5465 7.44232 12.6534 7.33538 12.7312C7.23815 12.7993 7.12635 12.8333 6.99996 12.8333ZM6.99996 10.7479C7.16524 10.4173 7.34996 10.0916 7.55413 9.77079C7.76801 9.44996 8.07913 9.02218 8.48746 8.48746C8.90552 7.94301 9.24579 7.44232 9.50829 6.98538C9.78051 6.51871 9.91663 5.94024 9.91663 5.24996C9.91663 4.44301 9.62982 3.7576 9.05621 3.19371C8.49232 2.6201 7.8069 2.33329 6.99996 2.33329C6.19301 2.33329 5.50274 2.6201 4.92913 3.19371C4.36524 3.7576 4.08329 4.44301 4.08329 5.24996C4.08329 5.94024 4.21454 6.51871 4.47704 6.98538C4.74926 7.44232 5.0944 7.94301 5.51246 8.48746C5.92079 9.02218 6.22704 9.44996 6.43121 9.77079C6.6451 10.0916 6.83468 10.4173 6.99996 10.7479ZM6.99996 6.70829C7.40829 6.70829 7.75343 6.56732 8.03538 6.28538C8.31732 6.00343 8.45829 5.65829 8.45829 5.24996C8.45829 4.84163 8.31732 4.49649 8.03538 4.21454C7.75343 3.9326 7.40829 3.79163 6.99996 3.79163C6.59163 3.79163 6.24649 3.9326 5.96454 4.21454C5.6826 4.49649 5.54163 4.84163 5.54163 5.24996C5.54163 5.65829 5.6826 6.00343 5.96454 6.28538C6.24649 6.56732 6.59163 6.70829 6.99996 6.70829Z" fill="black" fill-opacity="0.4"/>
</svg>
