<svg width="32" height="32" viewBox="0 0 32 32" fill="none" xmlns="http://www.w3.org/2000/svg">
<mask id="mask0_67_917" style="mask-type:alpha" maskUnits="userSpaceOnUse" x="0" y="0" width="32" height="32">
<rect width="32" height="32" fill="#D9D9D9"/>
</mask>
<g mask="url(#mask0_67_917)">
<path d="M5.41033 27.6667C4.74744 27.6667 4.18 27.4307 3.708 26.9587C3.236 26.4867 3 25.9192 3 25.2563V4.80767L4.9 6.70767L7.1 4.47433L9.33333 6.70767L11.5667 4.47433L13.7667 6.70767L16 4.47433L18.2333 6.70767L20.4333 4.47433L22.6667 6.70767L24.9 4.47433L27.1 6.70767L29 4.80767V25.2563C29 25.9192 28.764 26.4867 28.292 26.9587C27.82 27.4307 27.2526 27.6667 26.5897 27.6667H5.41033ZM5.41033 25.6667H15V17H5V25.2563C5 25.3761 5.03844 25.4744 5.11533 25.5513C5.19222 25.6282 5.29056 25.6667 5.41033 25.6667ZM17 25.6667H26.5897C26.7094 25.6667 26.8078 25.6282 26.8847 25.5513C26.9616 25.4744 27 25.3761 27 25.2563V22.3333H17V25.6667ZM17 20.3333H27V17H17V20.3333ZM5 15H27V10.205H5V15Z" fill="black"/>
</g>
</svg>
