<svg width="512" height="512" viewBox="0 0 512 512" fill="none" xmlns="http://www.w3.org/2000/svg">
<g clip-path="url(#clip0_144_508)">
<path d="M-0.00385595 494.869L17.1299 512.003L63.3537 465.779L46.22 448.645L-0.00385595 494.869Z" fill="white"/>
<path d="M0.169922 494.699L46.3939 448.809L63.1879 465.945L17.1329 511.66L0.169922 494.699Z" fill="white"/>
<path d="M263.682 147.594L43.4727 412.466L99.5337 468.527L364.406 248.317L263.682 147.594ZM99.5337 468.528L364.406 248.317Z" fill="white"/>
<path d="M43.6416 412.297L263.865 147.746L364.236 248.484L99.5486 468.203L43.6416 412.297Z" fill="white"/>
<path d="M273.211 120.521L391.479 238.789C421.001 239.129 450.552 228.369 473.705 206.907L305.092 38.295C283.631 61.447 272.872 90.9991 273.211 120.521Z" fill="white"/>
<path d="M391.48 238.551L273.38 120.352C273.101 90.1141 284.4 60.9731 305.267 38.4611L473.535 207.075C451.404 227.255 422.744 238.559 392.84 238.559L391.48 238.551Z" fill="white"/>
<path d="M477.097 34.904C437.35 -4.84399 376.59 -10.594 330.612 17.4L494.6 181.387C522.594 135.409 516.844 74.65 477.097 34.904Z" fill="white"/>
<path d="M330.783 17.23C349.394 6.24604 370.855 0.238037 392.801 0.238037C424.588 0.238037 454.465 12.609 476.928 35.07C515.823 73.968 523.051 133.933 494.553 181L330.783 17.23Z" fill="white"/>
</g>
<defs>
<clipPath id="clip0_144_508">
<rect width="512" height="512" fill="white"/>
</clipPath>
</defs>
</svg>
