<svg width="32" height="32" viewBox="0 0 32 32" fill="none" xmlns="http://www.w3.org/2000/svg">
<mask id="mask0_67_922" style="mask-type:alpha" maskUnits="userSpaceOnUse" x="0" y="0" width="32" height="32">
<rect width="32" height="32" fill="#D9D9D9"/>
</mask>
<g mask="url(#mask0_67_922)">
<path d="M16.0029 20.7693C17.5138 20.7693 18.7971 20.2406 19.8526 19.183C20.9082 18.1254 21.4359 16.8412 21.4359 15.3303C21.4359 13.8194 20.9072 12.5362 19.8496 11.4807C18.792 10.4251 17.5078 9.89733 15.9969 9.89733C14.486 9.89733 13.2028 10.4261 12.1473 11.4837C11.0917 12.5412 10.5639 13.8254 10.5639 15.3363C10.5639 16.8472 11.0927 18.1304 12.1503 19.186C13.2078 20.2416 14.492 20.7693 16.0029 20.7693ZM15.9999 18.9333C14.9999 18.9333 14.1499 18.5833 13.4499 17.8833C12.7499 17.1833 12.3999 16.3333 12.3999 15.3333C12.3999 14.3333 12.7499 13.4833 13.4499 12.7833C14.1499 12.0833 14.9999 11.7333 15.9999 11.7333C16.9999 11.7333 17.8499 12.0833 18.5499 12.7833C19.2499 13.4833 19.5999 14.3333 19.5999 15.3333C19.5999 16.3333 19.2499 17.1833 18.5499 17.8833C17.8499 18.5833 16.9999 18.9333 15.9999 18.9333ZM16.0016 24.6667C12.9356 24.6667 10.1419 23.8209 7.6206 22.1293C5.09927 20.438 3.24283 18.1727 2.05127 15.3333C3.24283 12.494 5.0986 10.2287 7.6186 8.53733C10.1388 6.84578 12.932 6 15.9983 6C19.0643 6 21.8579 6.84578 24.3793 8.53733C26.9006 10.2287 28.7571 12.494 29.9486 15.3333C28.7571 18.1727 26.9013 20.438 24.3813 22.1293C21.861 23.8209 19.0678 24.6667 16.0016 24.6667ZM15.9999 22.6667C18.511 22.6667 20.8166 22.0056 22.9166 20.6833C25.0166 19.3611 26.6222 17.5778 27.7333 15.3333C26.6222 13.0889 25.0166 11.3056 22.9166 9.98333C20.8166 8.66111 18.511 8 15.9999 8C13.4888 8 11.1833 8.66111 9.08327 9.98333C6.98327 11.3056 5.37771 13.0889 4.2666 15.3333C5.37771 17.5778 6.98327 19.3611 9.08327 20.6833C11.1833 22.0056 13.4888 22.6667 15.9999 22.6667Z" fill="black"/>
</g>
</svg>
