<svg width="901" height="887" viewBox="0 0 901 887" fill="none" xmlns="http://www.w3.org/2000/svg">
<path d="M352.973 101.39C302.73 116.973 253.81 141.35 214.354 177.067C196.529 193.199 183.479 212.368 169.533 231.77C157.5 248.499 137.905 269.306 133.558 289.926C147.669 300.716 167.158 307.902 183.698 314.235C197.819 319.638 219.197 323.971 229.042 335.471C238.788 326.622 244.347 308.364 253.204 297.223C262.124 286.007 272.346 276.159 282.968 266.706C302.672 249.173 326.911 225.263 353.99 220.095C357.017 232.021 349.154 249.461 353.992 259.187C370.864 251.731 386.777 236.599 402.631 226.428C419.375 215.682 435.634 204.248 452.244 193.49C475.609 178.347 502.788 167.569 525.904 153.127C516.943 143.698 498.733 135.87 487.206 129.408C473.456 121.697 461.127 116.818 444.9 107.417C428.277 97.7805 414.605 85.4811 397.018 77.709C384.154 72.0149 364.845 58.9848 351.644 57.1413C348.718 71.5262 354.252 86.7085 352.973 101.39Z" fill="#58367D" fill-opacity="0.6"/>
<path d="M811.671 366.07C796.084 315.825 771.716 266.904 735.989 227.449C719.86 209.63 700.691 196.58 681.289 182.634C664.557 170.595 643.761 150.999 623.139 146.656C612.345 160.765 604.171 172.666 597.838 189.205C592.434 203.331 586.253 222.929 577.586 242.137C586.435 251.883 604.695 257.448 615.842 266.302C626.87 275.342 637.043 285.265 646.355 296.064C663.888 315.768 687.803 340.005 692.966 367.087C681.038 370.118 663.6 362.251 653.878 367.09C661.338 383.964 676.461 399.873 686.633 415.728C697.381 432.467 708.821 448.734 719.579 465.344C734.712 488.71 745.488 515.893 759.936 539.006C769.357 530.043 777.189 511.834 783.653 500.302C791.369 486.55 796.243 474.223 805.646 458.003C815.286 441.371 827.584 427.704 835.36 410.118C841.047 397.246 854.076 377.941 855.919 364.741C841.528 361.817 826.352 367.349 811.671 366.07Z" fill="#58367D" fill-opacity="0.6"/>
<path d="M548.32 785.624C598.563 770.04 647.486 745.669 686.943 709.948C704.769 693.816 717.816 674.641 731.765 655.245C743.798 638.516 763.391 617.713 767.734 597.092C753.626 586.293 734.137 579.107 717.602 572.775C703.476 567.371 686.672 558.413 672.257 551.54C664.166 565.051 656.951 578.65 648.09 589.801C639.05 600.828 629.129 610.997 618.33 620.309C598.624 637.846 574.391 661.753 547.306 666.924C544.283 655 552.142 637.558 547.306 627.828C530.431 635.292 514.521 650.415 498.665 660.591C481.927 671.335 465.667 682.772 449.052 693.529C425.683 708.671 398.504 719.448 375.392 733.892C384.348 743.319 402.56 751.143 414.09 757.611C427.844 765.323 440.171 770.197 456.396 779.602C473.025 789.236 486.694 801.529 504.278 809.31C517.146 815.006 536.453 828.03 549.654 829.873C552.576 815.487 547.041 800.305 548.32 785.624Z" fill="#58367D" fill-opacity="0.6"/>
<path d="M95.5863 523.206C111.174 573.451 135.546 622.373 171.265 661.835C187.398 679.656 206.569 692.702 225.967 706.657C242.697 718.69 263.495 738.281 284.116 742.624C294.915 728.516 301.802 706.301 308.435 692.488C316.488 674.486 320.864 664.822 329.67 647.143C320.819 637.402 302.564 631.838 291.413 622.978C280.386 613.938 270.215 604.021 260.901 593.216C243.368 573.512 219.455 549.281 214.29 522.193C226.214 519.17 243.654 527.033 253.382 522.192C245.922 505.318 230.793 489.411 220.623 473.552C209.875 456.813 198.442 440.554 187.684 423.944C172.542 400.575 161.766 373.392 147.323 350.28C137.895 359.236 130.066 377.446 123.603 388.978C115.889 402.736 111.011 415.061 101.608 431.282C91.9783 447.913 79.6805 461.58 71.9025 479.17C66.2084 492.034 53.1783 511.343 51.3331 524.548C65.7273 527.463 80.9096 521.929 95.5863 523.206Z" fill="#58367D" fill-opacity="0.6"/>
</svg>
