<svg width="26" height="26" viewBox="0 0 26 26" fill="none" xmlns="http://www.w3.org/2000/svg">
<circle cx="12.9944" cy="12.7991" r="12.7991" fill="#FF947A"/>
<path d="M19.5933 6.74188V14.7857C19.5937 14.9999 19.5451 15.2113 19.4512 15.4038C19.3574 15.5964 19.2208 15.7649 19.0519 15.8966C18.8033 16.0863 18.4998 16.1899 18.1871 16.1919C18.0733 16.1916 17.96 16.1774 17.8496 16.1498L11.1558 14.4763L10.3683 14.2794H9.04639C8.12609 14.2793 7.24253 13.9183 6.58543 13.274C6.08691 12.7851 5.74523 12.1589 5.60396 11.4751C5.46269 10.7913 5.52823 10.081 5.79222 9.43456C6.0562 8.78817 6.50669 8.23502 7.08624 7.84563C7.66579 7.45624 8.34817 7.24823 9.04639 7.24813H10.3683L17.8496 5.3778C18.0561 5.32626 18.2716 5.32226 18.4799 5.3661C18.6881 5.40995 18.8837 5.5005 19.0519 5.63093C19.2208 5.76265 19.3574 5.93121 19.4512 6.12374C19.5451 6.31627 19.5937 6.5277 19.5933 6.74188Z" fill="white"/>
<path d="M11.1524 15.1969V17.7914C11.1524 18.1644 11.0042 18.5221 10.7405 18.7858C10.4768 19.0495 10.1191 19.1977 9.74612 19.1977H8.91642C8.58644 19.204 8.26475 19.0941 8.00766 18.8871C7.75057 18.6802 7.57446 18.3894 7.51016 18.0657L6.79297 14.332C7.16885 14.5726 7.58239 14.7485 8.01642 14.8523C8.35199 14.9372 8.69686 14.9797 9.04299 14.9789H10.2805L11.1524 15.1969Z" fill="white"/>
</svg>
