<svg width="27" height="27" viewBox="0 0 27 27" fill="none" xmlns="http://www.w3.org/2000/svg">
<circle cx="13.3333" cy="13.3333" r="13.3333" fill="white"/>
<g clip-path="url(#clip0_6320_47204)">
<path fill-rule="evenodd" clip-rule="evenodd" d="M18.9917 8.30013C19.053 8.23008 19.0998 8.14866 19.1296 8.06051C19.1594 7.97235 19.1715 7.8792 19.1653 7.78636C19.1591 7.69351 19.1347 7.60281 19.0934 7.51941C19.0521 7.43602 18.9948 7.36157 18.9248 7.30031C18.8547 7.23906 18.7733 7.1922 18.6852 7.16242C18.597 7.13263 18.5038 7.1205 18.411 7.12671C18.3182 7.13293 18.2275 7.15737 18.1441 7.19864C18.0607 7.23991 17.9862 7.29721 17.925 7.36725L14.3054 11.5039L11.2333 7.40833C11.1674 7.32036 11.0818 7.24896 10.9834 7.19978C10.8851 7.1506 10.7766 7.125 10.6667 7.125H7.83333C7.70179 7.125 7.57284 7.16163 7.46094 7.23079C7.34904 7.29995 7.25861 7.3989 7.19978 7.51656C7.14095 7.63422 7.11605 7.76593 7.12786 7.89695C7.13968 8.02796 7.18774 8.1531 7.26667 8.25833L11.8262 14.3373L8.00829 18.7006C7.94704 18.7706 7.90018 18.8521 7.87039 18.9402C7.84061 19.0284 7.82848 19.1215 7.83469 19.2144C7.84091 19.3072 7.86535 19.3979 7.90662 19.4813C7.94789 19.5647 8.00519 19.6391 8.07523 19.7004C8.14527 19.7616 8.2267 19.8085 8.31485 19.8383C8.403 19.8681 8.49616 19.8802 8.589 19.874C8.68184 19.8678 8.77255 19.8433 8.85594 19.8021C8.93934 19.7608 9.01379 19.7035 9.07504 19.6335L12.6946 15.4961L15.7667 19.5917C15.8326 19.6796 15.9182 19.751 16.0166 19.8002C16.1149 19.8494 16.2234 19.875 16.3333 19.875H19.1667C19.2982 19.875 19.4272 19.8384 19.5391 19.7692C19.651 19.7001 19.7414 19.6011 19.8002 19.4834C19.859 19.3658 19.884 19.2341 19.8721 19.1031C19.8603 18.972 19.8123 18.8469 19.7333 18.7417L15.1738 12.6628L18.9917 8.30013ZM16.6875 18.4583L9.25 8.54167H10.3125L17.75 18.4583H16.6875Z" fill="#6A4C8F"/>
</g>
<defs>
<clipPath id="clip0_6320_47204">
<rect width="17" height="17" fill="white" transform="translate(5 5)"/>
</clipPath>
</defs>
</svg>
