<svg width="28" height="27" viewBox="0 0 28 27" fill="none" xmlns="http://www.w3.org/2000/svg">
<circle cx="13.9998" cy="13.3333" r="13.3333" fill="white"/>
<path fill-rule="evenodd" clip-rule="evenodd" d="M10.5162 6.85584C10.5162 7.6859 9.88415 8.35765 8.89578 8.35765C7.94591 8.35765 7.31389 7.6859 7.33345 6.85584C7.31389 5.98544 7.9459 5.33325 8.91471 5.33325C9.88414 5.33325 10.4972 5.98544 10.5162 6.85584ZM7.41291 19.2126V9.54406H10.4178V19.212H7.41291V19.2126Z" fill="#6A4C8F"/>
<path fill-rule="evenodd" clip-rule="evenodd" d="M12.826 12.6297C12.826 11.4237 12.7863 10.3956 12.7466 9.54536H15.3566L15.4953 10.8699H15.5546C15.9501 10.2568 16.9385 9.32837 18.5399 9.32837C20.5167 9.32837 21.9995 10.6334 21.9995 13.4793V19.2139H18.9947V13.8558C18.9947 12.6095 18.5601 11.7599 17.4727 11.7599C16.642 11.7599 16.1481 12.3332 15.9507 12.8864C15.8712 13.0844 15.8321 13.3607 15.8321 13.6382V19.2139H12.8273V12.6297H12.826Z" fill="#6A4C8F"/>
</svg>
