<svg width="27" height="27" viewBox="0 0 27 27" fill="none" xmlns="http://www.w3.org/2000/svg">
<circle cx="13.3333" cy="13.3333" r="13.3333" fill="#C13584"/>
<path d="M13.3335 6.77444C15.4696 6.77444 15.7226 6.7826 16.5662 6.82109C17.3462 6.85666 17.7698 6.98698 18.0517 7.09654C18.4251 7.24167 18.6916 7.41502 18.9715 7.69495C19.2515 7.97491 19.4248 8.24141 19.57 8.61483C19.6795 8.89672 19.8098 9.32032 19.8454 10.1003C19.8839 10.9439 19.8921 11.1969 19.8921 13.333C19.8921 15.4691 19.8839 15.7221 19.8454 16.5657C19.8098 17.3456 19.6795 17.7692 19.57 18.0511C19.4248 18.4246 19.2515 18.6911 18.9715 18.971C18.6916 19.2509 18.4251 19.4243 18.0517 19.5694C17.7698 19.679 17.3462 19.8093 16.5662 19.8449C15.7227 19.8834 15.4697 19.8915 13.3335 19.8915C11.1973 19.8915 10.9443 19.8834 10.1008 19.8449C9.32082 19.8093 8.89722 19.679 8.61533 19.5694C8.24191 19.4243 7.97541 19.2509 7.69548 18.971C7.41555 18.6911 7.24216 18.4246 7.09704 18.0511C6.98748 17.7692 6.85715 17.3456 6.82158 16.5657C6.7831 15.7221 6.77494 15.4691 6.77494 13.333C6.77494 11.1969 6.7831 10.9439 6.82158 10.1003C6.85715 9.32032 6.98748 8.89672 7.09704 8.61483C7.24216 8.24141 7.41552 7.97491 7.69548 7.69498C7.97541 7.41502 8.24191 7.24167 8.61533 7.09654C8.89722 6.98698 9.32082 6.85666 10.1008 6.82109C10.9444 6.7826 11.1974 6.77444 13.3335 6.77444ZM13.3335 5.33301C11.1608 5.33301 10.8884 5.34222 10.0351 5.38115C9.1836 5.41999 8.60205 5.55524 8.09319 5.75298C7.56712 5.95742 7.12098 6.23097 6.67621 6.67571C6.23146 7.12049 5.95792 7.56663 5.7535 8.09269C5.55572 8.60155 5.42048 9.1831 5.38164 10.0346C5.34271 10.8879 5.3335 11.1603 5.3335 13.333C5.3335 15.5056 5.34271 15.7781 5.38164 16.6314C5.42048 17.4829 5.55572 18.0644 5.7535 18.5733C5.95792 19.0993 6.23146 19.5455 6.67621 19.9902C7.12098 20.435 7.56712 20.7085 8.09319 20.913C8.60205 21.1107 9.1836 21.246 10.0351 21.2848C10.8884 21.3237 11.1608 21.333 13.3335 21.333C15.5062 21.333 15.7786 21.3237 16.6319 21.2848C17.4834 21.246 18.0649 21.1107 18.5738 20.913C19.0999 20.7085 19.546 20.435 19.9908 19.9902C20.4355 19.5455 20.7091 19.0993 20.9135 18.5733C21.1113 18.0644 21.2465 17.4829 21.2854 16.6314C21.3243 15.7781 21.3335 15.5056 21.3335 13.333C21.3335 11.1603 21.3243 10.8879 21.2854 10.0346C21.2465 9.1831 21.1113 8.60155 20.9135 8.09269C20.7091 7.56663 20.4355 7.12049 19.9908 6.67571C19.546 6.23097 19.0999 5.95742 18.5738 5.75298C18.0649 5.55524 17.4834 5.41999 16.6319 5.38115C15.7786 5.34222 15.5062 5.33301 13.3335 5.33301Z" fill="white"/>
<path d="M13.3371 9.22852C11.0683 9.22852 9.229 11.0678 9.229 13.3366C9.229 15.6055 11.0683 17.4447 13.3371 17.4447C15.606 17.4447 17.4452 15.6055 17.4452 13.3366C17.4452 11.0678 15.606 9.22852 13.3371 9.22852ZM13.3371 16.0033C11.8643 16.0033 10.6704 14.8094 10.6704 13.3366C10.6704 11.8638 11.8643 10.6699 13.3371 10.6699C14.8099 10.6699 16.0038 11.8638 16.0038 13.3366C16.0038 14.8094 14.8099 16.0033 13.3371 16.0033Z" fill="white"/>
<path d="M18.5675 9.06353C18.5675 9.5937 18.1376 10.0235 17.6074 10.0235C17.0773 10.0235 16.6475 9.5937 16.6475 9.06353C16.6475 8.53333 17.0773 8.10352 17.6074 8.10352C18.1376 8.10352 18.5675 8.53333 18.5675 9.06353Z" fill="white"/>
</svg>
