<svg width="27" height="26" viewBox="0 0 27 26" fill="none" xmlns="http://www.w3.org/2000/svg">
<circle cx="13.3694" cy="12.7991" r="12.7991" fill="#FA5A7D"/>
<path fill-rule="evenodd" clip-rule="evenodd" d="M16.972 8.85088C16.972 11.4067 15.4265 13.6001 13.3686 13.6001C11.3091 13.6001 9.76527 11.4067 9.76527 8.85008C9.76527 6.29507 11.0945 4.80078 13.3686 4.80078C15.6427 4.80078 16.972 6.29427 16.972 8.85088ZM7.04434 19.3133C7.35263 19.6797 8.68027 20.7996 13.3686 20.7996C18.057 20.7996 19.3838 19.6797 19.6929 19.3141C19.7216 19.279 19.7428 19.2384 19.7551 19.1948C19.7675 19.1512 19.7709 19.1055 19.765 19.0605C19.6945 18.355 19.0587 15.2 13.3686 15.2C7.67853 15.2 7.04274 18.355 6.97148 19.0605C6.96568 19.1055 6.96915 19.1512 6.98168 19.1948C6.99421 19.2385 7.01554 19.2782 7.04434 19.3133Z" fill="white"/>
</svg>
