<svg width="27" height="27" viewBox="0 0 27 27" fill="none" xmlns="http://www.w3.org/2000/svg">
<circle cx="13.6668" cy="13.3333" r="13.3333" fill="#0077B5"/>
<path fill-rule="evenodd" clip-rule="evenodd" d="M10.1832 6.8556C10.1832 7.68566 9.55114 8.35741 8.56277 8.35741C7.6129 8.35741 6.98088 7.68566 7.00044 6.8556C6.98088 5.9852 7.61289 5.33301 8.5817 5.33301C9.55113 5.33301 10.1642 5.9852 10.1832 6.8556ZM7.07991 19.2124V9.54382H10.0848V19.2118H7.07991V19.2124Z" fill="white"/>
<path fill-rule="evenodd" clip-rule="evenodd" d="M12.493 12.6294C12.493 11.4234 12.4533 10.3953 12.4136 9.54511H15.0236L15.1623 10.8697H15.2216C15.6171 10.2566 16.6055 9.32812 18.2069 9.32812C20.1836 9.32812 21.6665 10.6331 21.6665 13.479V19.2137H18.6617V13.8556C18.6617 12.6092 18.2271 11.7596 17.1397 11.7596C16.309 11.7596 15.8151 12.333 15.6177 12.8861C15.5382 13.0842 15.4991 13.3605 15.4991 13.638V19.2137H12.4943V12.6294H12.493Z" fill="white"/>
</svg>
