<svg width="24" height="24" viewBox="0 0 24 24" fill="none" xmlns="http://www.w3.org/2000/svg">
<circle cx="12" cy="12" r="12" fill="#BF83FF"/>
<path d="M19 12C19 15.866 15.866 19 12 19C8.13401 19 5 15.866 5 12C5 8.13401 8.13401 5 12 5C15.866 5 19 8.13401 19 12ZM6.27707 12C6.27707 15.1607 8.83932 17.7229 12 17.7229C15.1607 17.7229 17.7229 15.1607 17.7229 12C17.7229 8.83932 15.1607 6.27707 12 6.27707C8.83932 6.27707 6.27707 8.83932 6.27707 12Z" fill="white"/>
<path d="M11.9996 7.54297C11.6482 7.54297 11.3633 7.82788 11.3633 8.17933V12.2945C11.3633 12.2945 11.3633 12.4604 11.4439 12.5852C11.4979 12.691 11.582 12.783 11.6925 12.8468L14.6324 14.5442C14.9368 14.7199 15.326 14.6156 15.5017 14.3112C15.6774 14.0068 15.5731 13.6176 15.2688 13.4419L12.636 11.9219V8.17933C12.636 7.82788 12.3511 7.54297 11.9996 7.54297Z" fill="white"/>
</svg>
