<svg width="28" height="27" viewBox="0 0 28 27" fill="none" xmlns="http://www.w3.org/2000/svg">
<circle cx="13.9998" cy="13.3333" r="13.3333" fill="#CF1818"/>
<path d="M21.1998 11.4C21.0665 10.4 20.9332 9.66667 20.5332 9.4C20.1332 9.06667 16.6665 9 13.9998 9C11.3332 9 7.8665 9.06667 7.4665 9.4C7.0665 9.66667 6.93317 10.4 6.79984 11.4C6.6665 12.4 6.6665 13 6.6665 13.6667C6.6665 14.3333 6.6665 14.9333 6.79984 15.9333C6.93317 16.9333 7.0665 17.6667 7.4665 17.9333C7.8665 18.2667 11.3332 18.3333 13.9998 18.3333C16.6665 18.3333 20.1332 18.2667 20.5332 17.9333C20.9332 17.6667 21.0665 16.9333 21.1998 15.9333C21.3332 14.9333 21.3332 14.3333 21.3332 13.6667C21.3332 13 21.3332 12.4 21.1998 11.4ZM12.6665 16.0667V11.2667L16.6665 13.6667L12.6665 16.0667Z" fill="white"/>
</svg>
